<svg preserveAspectRatio="none" overflow="visible" style="display: block;" width="28" height="28" viewBox="0 0 28 28" fill="none" xmlns="http://www.w3.org/2000/svg">
<g id="Frame">
<path id="Vector" d="M20.9417 18.2583L14.8746 13.7083L20.9417 9.15833C21.0503 9.07683 21.1385 8.97114 21.1993 8.84965C21.26 8.72815 21.2917 8.59417 21.2917 8.45833C21.2917 8.32249 21.26 8.18852 21.1993 8.06702C21.1385 7.94552 21.0503 7.83984 20.9417 7.75833L13.9417 2.50833C13.8117 2.41083 13.6571 2.35146 13.4952 2.33687C13.3334 2.32228 13.1707 2.35304 13.0254 2.42571C12.88 2.49838 12.7578 2.61009 12.6723 2.74832C12.5869 2.88655 12.5417 3.04584 12.5417 3.20833V11.9583L6.94167 7.75833C6.75602 7.61909 6.52266 7.55931 6.29292 7.59213C6.06319 7.62495 5.85591 7.74768 5.71667 7.93333C5.57743 8.11898 5.51764 8.35235 5.55046 8.58208C5.58328 8.81181 5.70602 9.0191 5.89167 9.15833L11.9587 13.7083L5.89167 18.2583C5.79974 18.3273 5.7223 18.4137 5.66375 18.5125C5.60521 18.6114 5.56671 18.7208 5.55046 18.8346C5.51764 19.0643 5.57743 19.2977 5.71667 19.4833C5.85591 19.669 6.06319 19.7917 6.29292 19.8245C6.52266 19.8574 6.75602 19.7976 6.94167 19.6583L12.5417 15.4583V24.2083C12.5417 24.3708 12.5869 24.5301 12.6723 24.6683C12.7578 24.8066 12.88 24.9183 13.0254 24.991C13.1707 25.0636 13.3334 25.0944 13.4952 25.0798C13.6571 25.0652 13.8117 25.0058 13.9417 24.9083L20.9417 19.6583C21.0503 19.5768 21.1385 19.4711 21.1993 19.3496C21.26 19.2281 21.2917 19.0942 21.2917 18.9583C21.2917 18.8225 21.26 18.6885 21.1993 18.567C21.1385 18.4455 21.0503 18.3398 20.9417 18.2583ZM14.2917 4.95833L18.9587 8.45833L14.2917 11.9583V4.95833ZM14.2917 22.4583V15.4583L18.9587 18.9583L14.2917 22.4583ZM5.97917 15.0208C5.71958 15.0208 5.46582 14.9439 5.24998 14.7996C5.03414 14.6554 4.86592 14.4504 4.76658 14.2106C4.66724 13.9708 4.64124 13.7069 4.69189 13.4523C4.74253 13.1977 4.86753 12.9638 5.05109 12.7803C5.23465 12.5967 5.46851 12.4717 5.72311 12.4211C5.97771 12.3704 6.24161 12.3964 6.48144 12.4957C6.72127 12.5951 6.92625 12.7633 7.07047 12.9791C7.21469 13.195 7.29167 13.4487 7.29167 13.7083C7.29167 14.0564 7.15339 14.3903 6.90724 14.6364C6.6611 14.8826 6.32726 15.0208 5.97917 15.0208ZM23.0417 13.7083C23.0417 13.9679 22.9647 14.2217 22.8205 14.4375C22.6763 14.6534 22.4713 14.8216 22.2314 14.9209C21.9916 15.0203 21.7277 15.0463 21.4731 14.9956C21.2185 14.945 20.9846 14.82 20.8011 14.6364C20.6175 14.4529 20.4925 14.219 20.4419 13.9644C20.3912 13.7098 20.4172 13.4459 20.5166 13.2061C20.6159 12.9662 20.7841 12.7612 21 12.617C21.2158 12.4728 21.4696 12.3958 21.7292 12.3958C22.0773 12.3958 22.4111 12.5341 22.6572 12.7803C22.9034 13.0264 23.0417 13.3602 23.0417 13.7083Z" fill="#258BEB" fill-opacity="0.8"/>
</g>
</svg>
